<svg xmlns="http://www.w3.org/2000/svg" width="1600" height="1600" viewBox="0 0 1600 1600"><title>Achim Galeski Logo outlined</title><rect width="1600" height="1600" y="-1584" ry="300" fill="#fff" transform="translate(0 1584)"/><path d="M498.52 100.005c-7.013 5.652-6.754 15.745-11.564 22.936-25.26 61.34-43.767 125.36-69.16 186.705-106.41 288.933-215.68 576.865-317.665 867.386-1.54 13.8 10.846 23.143 17.438 33.75 95.218 128.156 228.54 228.29 379.48 280.21 21.044-47.583 66.362-84.256 118.08-91.878 60.07-11.952 121.753-1.732 182.115-9.02 41.884-2.696 85.62-7.997 126.21 5.916 40.96 16.357 69.427 58.675 70.27 102.738.006 3.56 5.726-1.635 8.085-1.095 65.132-19.407 124.35-57.432 192.4-67.067 38.5-.357 75.933 10.573 114.245 12.677 63.823 8.313 127.163 19.714 191.52 21.89.99-52.528-24.48-99.97-38.774-149.362-57.833-180.033-120.144-358.666-185.77-535.868-.52-4.06-3.575-9.613-8.34-6.382-98.25 12.415-197.41.128-294.703-14.208-2.544.77-8.863-3.192-7.517 1.76 1.235 93.135 16.207 185.363 30.39 277.286-1.052 26.424-24.885 47.338-50.015 50.876-61.3 19.148-126.997 33.3-191.04 20.185-133.782-25.14-245.858-140.725-265.32-276.086C471.44 707.865 544.1 575.625 659.212 523.358c90.075-42.128 196.234-42.622 289.372-10.155 49.522 16.143 93.273 45.704 141.977 63.516 20.383 5.055 39.765-5.542 55.585-17.252 10.8-7.864 21.332-16.78 29.18-27.59-.09-11.252-9.246-19.534-12.002-30.083-60.545-132.072-116.268-266.618-185.116-394.647-10.44-8.415-24.59-2.793-36.476-1.987-68.936 9.662-138.586 16.046-208.25 13.83-44.054-1.258-87.748-7.26-131.417-12.71-34.398-3.596-68.945-6.418-103.543-6.27z" fill="#008b8b"/></svg>